<?xml version="1.0" standalone="no"?>
<!DOCTYPE svg PUBLIC "-//W3C//DTD SVG 20010904//EN"
 "http://www.w3.org/TR/2001/REC-SVG-20010904/DTD/svg10.dtd">
<svg version="1.0" xmlns="http://www.w3.org/2000/svg"
 width="1280.000000pt" height="865.000000pt" viewBox="0 0 1280.000000 865.000000"
 preserveAspectRatio="xMidYMid meet">
<g transform="translate(0.000000,865.000000) scale(0.100000,-0.100000)"
fill="#000000" stroke="none">
<path d="M7919 8546 c-223 -115 -235 -122 -566 -338 -134 -87 -252 -158 -263
-158 -11 0 -55 17 -98 39 -127 64 -414 185 -630 265 -487 182 -813 255 -1019
229 -137 -18 -197 -44 -273 -122 -91 -91 -107 -152 -75 -275 71 -273 444 -684
910 -1003 147 -101 360 -255 390 -284 12 -10 26 -40 33 -66 7 -27 36 -95 65
-153 50 -104 51 -106 53 -210 2 -76 -2 -111 -12 -127 -27 -43 -125 -38 -139 6
-3 12 -11 21 -16 21 -31 0 23 -90 63 -104 29 -10 103 15 124 43 9 11 21 2 63
-50 33 -41 50 -71 47 -82 -2 -10 2 -21 10 -24 8 -3 28 -32 44 -64 27 -52 30
-69 30 -148 0 -49 -3 -96 -6 -104 -3 -8 -33 -25 -67 -38 -34 -13 -77 -32 -95
-42 -35 -20 -74 -87 -87 -146 -7 -33 -7 -34 21 -26 95 26 89 2 -18 -77 -224
-163 -268 -204 -268 -249 0 -18 -11 -52 -25 -75 -24 -41 -25 -49 -20 -146 7
-120 4 -127 -85 -200 -53 -43 -55 -46 -54 -94 0 -35 14 -83 48 -164 78 -189
77 -167 18 -257 -28 -43 -65 -92 -81 -110 -34 -38 -157 -119 -291 -193 -107
-59 -129 -75 -141 -108 -10 -27 1 -53 38 -94 14 -14 23 -34 21 -44 -3 -20
-306 -231 -344 -240 -12 -3 -68 8 -125 25 -161 46 -234 59 -372 65 l-128 5
-29 -40 c-68 -95 -72 -160 -10 -174 55 -12 50 -28 -46 -142 -86 -100 -101
-146 -69 -207 20 -37 19 -54 -2 -60 -183 -52 -175 -47 -209 -141 -23 -65 -31
-75 -63 -75 -32 0 -316 66 -1271 294 -404 97 -850 203 -990 237 -140 34 -498
121 -795 195 -529 132 -543 136 -679 200 -154 72 -272 114 -321 114 -20 0 -39
-8 -54 -24 -25 -27 -61 -134 -61 -184 0 -35 37 -159 49 -167 9 -5 156 -28 536
-84 149 -22 376 -63 505 -91 129 -27 297 -64 373 -80 76 -16 151 -37 167 -45
16 -8 35 -15 43 -15 8 0 498 -110 1088 -245 591 -135 1175 -268 1298 -296 123
-27 228 -52 233 -55 4 -3 8 -23 8 -45 0 -73 36 -100 86 -65 18 13 22 13 37 -5
9 -10 26 -19 36 -19 21 0 51 25 51 43 0 6 12 -1 28 -15 15 -14 42 -34 60 -44
17 -10 55 -47 83 -81 47 -58 50 -66 44 -101 -5 -30 -2 -44 14 -64 12 -14 21
-29 21 -32 0 -4 -27 -53 -60 -109 -118 -202 -129 -260 -76 -380 44 -101 78
-139 176 -201 89 -57 90 -58 84 -91 -10 -53 2 -73 49 -86 23 -6 96 -32 162
-59 66 -26 185 -66 264 -90 140 -41 341 -119 448 -173 29 -15 98 -39 155 -55
92 -25 112 -35 189 -92 47 -36 108 -81 135 -100 26 -19 76 -68 110 -109 37
-43 71 -75 83 -76 28 -2 238 -183 448 -386 62 -60 121 -109 131 -109 16 0 132
66 132 76 0 10 -104 253 -131 307 -16 31 -45 82 -64 112 -58 90 -48 103 51 75
38 -11 115 -24 170 -30 63 -6 127 -19 168 -34 110 -42 309 -99 341 -98 22 0
39 11 63 38 17 21 32 41 32 45 0 36 -265 287 -353 334 -59 31 -187 151 -187
175 0 9 7 26 16 38 19 28 17 31 -80 144 -87 102 -93 104 -147 70 -170 -109
-206 -120 -271 -86 -26 13 -40 14 -97 4 -36 -7 -79 -16 -95 -21 -59 -18 -79
-11 -186 71 -193 148 -256 195 -304 228 -27 18 -51 43 -54 55 -3 12 -44 99
-91 194 -48 94 -85 176 -83 182 2 6 27 24 56 41 49 27 59 29 114 24 77 -8 94
3 86 56 -7 45 4 55 53 45 32 -6 35 -9 29 -35 -5 -26 -2 -29 22 -32 25 -3 27
-6 28 -55 1 -62 11 -76 69 -99 56 -21 71 -15 91 36 18 45 35 50 57 17 l15 -22
37 20 c33 17 38 18 49 4 17 -24 39 -28 58 -12 22 19 35 11 43 -28 14 -65 57
-45 81 37 8 30 20 54 25 54 5 0 36 -26 69 -59 66 -64 116 -85 185 -79 l40 3 0
65 c0 63 1 65 24 62 13 -1 29 5 36 14 11 16 14 16 36 1 30 -21 52 -21 92 -1
30 16 32 16 45 -5 18 -27 58 -27 74 -1 19 30 38 25 38 -10 0 -34 30 -70 59
-70 10 0 40 3 66 7 42 5 49 10 61 40 12 27 19 32 37 28 12 -2 170 -32 350 -65
289 -54 349 -68 495 -119 302 -106 309 -112 150 -131 -207 -24 -193 -20 -193
-65 0 -47 -14 -45 167 -20 118 17 129 17 152 1 28 -18 81 -22 91 -6 11 18 64
11 75 -10 8 -14 21 -20 48 -21 20 0 46 -4 57 -8 10 -4 31 -3 46 2 24 10 41 -1
225 -139 109 -82 230 -174 269 -205 119 -96 205 -140 460 -239 55 -21 222 -89
370 -150 355 -146 438 -172 640 -200 92 -13 221 -59 489 -176 120 -52 192 -79
195 -71 2 6 0 13 -5 15 -69 29 -349 180 -352 190 -6 19 90 15 327 -13 297 -36
359 -50 618 -140 72 -25 133 -45 137 -45 4 0 6 15 4 32 -3 31 -7 34 -95 68
-132 51 -143 67 -56 81 112 18 174 11 278 -31 75 -31 101 -37 107 -28 10 17
10 31 -1 61 -8 21 -45 39 -233 113 -123 48 -286 107 -363 130 -136 41 -176 63
-118 65 15 1 118 0 228 -1 l200 -2 113 -44 c63 -24 118 -42 123 -38 5 3 9 13
9 23 0 13 -51 43 -191 112 -184 91 -230 119 -195 119 8 0 110 -37 226 -82 205
-79 240 -86 225 -46 -7 17 -27 27 -300 153 -110 51 -261 114 -335 140 -149 53
-210 80 -210 95 0 16 64 12 251 -15 261 -37 309 -53 499 -164 58 -33 110 -61
116 -61 15 0 47 48 39 59 -9 16 -240 150 -282 165 -23 8 -124 31 -225 51 -170
35 -204 45 -488 157 -352 138 -494 202 -488 220 8 22 80 40 145 36 57 -4 83
-15 271 -111 195 -99 411 -193 475 -204 25 -5 27 -3 27 29 l0 35 -87 23 c-120
31 -165 52 -333 157 -182 113 -199 122 -263 133 -28 5 -223 14 -432 19 -369
10 -386 11 -590 46 -192 33 -235 37 -500 45 -185 5 -349 5 -455 -2 -180 -11
-250 -3 -301 35 -26 19 -29 19 -53 4 -20 -14 -34 -15 -77 -7 -28 6 -53 10 -55
10 -2 0 -11 17 -19 38 -18 41 -62 92 -81 92 -7 0 -27 -12 -44 -27 l-32 -27
-122 62 c-66 34 -138 72 -158 84 -30 18 -41 21 -55 12 -10 -7 -17 -20 -15 -30
12 -65 10 -69 -43 -74 -41 -4 -51 -9 -53 -26 -2 -13 6 -25 23 -34 31 -16 27
-36 -6 -32 -13 1 -139 25 -279 53 -254 50 -280 59 -280 97 0 9 6 12 15 8 8 -3
21 -9 29 -12 9 -4 20 5 30 23 9 19 28 33 52 41 42 13 56 6 77 -37 10 -21 19
-26 46 -24 38 1 87 33 85 54 -1 8 -5 22 -9 32 -6 13 -2 17 15 17 22 0 73 43
81 69 4 11 11 11 38 -3 38 -20 80 -14 83 12 0 9 0 30 -1 46 -3 28 -2 29 37 22
48 -7 59 4 64 59 3 38 5 40 43 45 42 5 45 10 30 70 -5 21 2 31 50 69 73 59
205 197 205 216 0 34 -56 46 -253 55 -106 5 -214 13 -242 19 -65 13 -246 67
-472 142 -209 69 -174 45 -472 319 -173 158 -201 188 -201 213 0 16 -13 75
-29 131 -44 152 -53 204 -49 286 l3 74 35 8 c160 33 245 55 374 95 139 44 149
46 161 30 10 -14 10 -25 1 -48 -9 -27 -8 -32 8 -45 11 -8 28 -14 38 -14 29 0
122 -40 132 -57 27 -48 81 -93 118 -99 40 -7 58 -26 58 -62 0 -28 81 -133 145
-188 42 -35 65 -47 102 -52 46 -7 49 -9 76 -63 22 -44 36 -60 72 -77 25 -12
64 -25 88 -28 37 -6 54 -19 142 -109 55 -57 110 -108 122 -114 51 -26 129 2
180 63 122 148 233 499 233 735 0 123 11 251 22 251 5 0 25 -12 44 -26 54 -42
50 -22 -6 25 l-50 42 0 93 c0 58 4 96 12 104 9 9 9 15 0 24 -7 7 -12 20 -12
29 0 13 14 18 62 23 78 9 108 25 183 96 33 31 108 95 166 143 136 110 179 158
179 197 0 17 -4 30 -9 30 -5 0 -45 -25 -89 -55 -77 -53 -102 -64 -102 -47 0 5
41 53 91 108 98 105 129 148 129 177 0 34 -42 17 -128 -51 -177 -139 -185
-131 -42 39 68 81 100 127 100 144 0 50 -40 29 -157 -80 -157 -146 -169 -142
-68 19 65 103 81 156 49 156 -29 0 -54 -21 -149 -128 -53 -59 -129 -135 -168
-170 -59 -52 -77 -62 -102 -60 -39 4 -44 33 -16 98 12 27 21 63 21 80 0 51
-43 120 -75 120 -2 0 -18 -44 -36 -97 -17 -54 -50 -138 -73 -188 -38 -85 -40
-95 -39 -176 1 -48 8 -102 16 -120 12 -31 12 -38 -6 -72 -22 -43 -147 -160
-211 -197 -23 -14 -84 -60 -136 -103 -101 -86 -92 -84 -194 -47 l-58 21 -64
-23 c-79 -28 -90 -21 -73 46 9 38 20 53 50 73 22 14 39 34 39 43 0 10 -26 49
-58 87 -59 71 -90 124 -94 164 -3 24 -3 24 96 71 27 13 51 28 53 35 2 6 -13
21 -34 34 -21 12 -75 49 -120 81 -100 72 -107 87 -107 253 -1 150 13 185 126
295 110 109 128 162 86 246 -12 24 -19 46 -16 50 3 3 57 -11 120 -31 236 -75
536 -122 697 -111 101 8 233 37 285 63 41 20 84 61 103 98 31 58 10 188 -41
260 -44 63 -590 742 -630 783 -65 68 -358 278 -644 461 -124 79 -122 76 -122
180 0 76 7 113 49 263 50 176 115 379 132 410 5 9 32 24 60 33 34 12 53 24 57
37 4 18 10 19 61 12 89 -13 130 -7 214 33 117 55 120 83 11 83 -57 0 -98 16
-321 125 -107 52 -197 94 -201 94 -4 -1 -95 -47 -203 -103z m-1436 -1770 c14
-11 17 -25 15 -58 -4 -51 -17 -54 -39 -7 -30 62 -32 79 -12 79 10 0 26 -7 36
-14z"/>
<path d="M9350 4463 c1 -23 80 -72 118 -73 22 0 4 17 -25 25 -16 3 -43 18 -60
31 -18 14 -33 21 -33 17z"/>
</g>
</svg>
